<svg width="20" height="21" viewBox="0 0 20 21" fill="none" xmlns="http://www.w3.org/2000/svg">
<path d="M2.08331 10.371C2.08331 6.63906 2.08331 4.77309 3.24268 3.61371C4.40205 2.45435 6.26803 2.45435 9.99998 2.45435C13.7319 2.45435 15.5979 2.45435 16.7573 3.61371C17.9166 4.77309 17.9166 6.63906 17.9166 10.371C17.9166 14.1029 17.9166 15.9689 16.7573 17.1283C15.5979 18.2877 13.7319 18.2877 9.99998 18.2877C6.26803 18.2877 4.40205 18.2877 3.24268 17.1283C2.08331 15.9689 2.08331 14.1029 2.08331 10.371Z" stroke="white" stroke-width="1.25" stroke-linejoin="round"/>
<path d="M14.1054 7.05981H11.6513C10.7815 7.05981 10.0745 7.76156 10.0681 8.63141L9.99701 18.2268M8.40167 12.0393H12.4039" stroke="white" stroke-width="1.25" stroke-linecap="round" stroke-linejoin="round"/>
</svg>
